<?xml version="1.0" encoding="utf-8"?>
<!-- Generator: Adobe Illustrator 25.4.1, SVG Export Plug-In . SVG Version: 6.00 Build 0)  -->
<svg version="1.1" id="Layer_1" xmlns="http://www.w3.org/2000/svg" xmlns:xlink="http://www.w3.org/1999/xlink" x="0px" y="0px"
	 viewBox="0 0 1200 800" style="enable-background:new 0 0 1200 800;" xml:space="preserve">
<style type="text/css">
	.st0{display:none;}
	.st1{display:none;fill:#00C1FF;}
	.st2{display:none;fill:url(#SVGID_1_);}
	.st3{display:none;fill:url(#SVGID_00000042707152853666695510000007830649616024671367_);}
	.st4{display:none;fill:url(#SVGID_00000084499240859181930400000002294524368726221445_);}
	.st5{display:none;fill:url(#SVGID_00000043451127537068912670000011109168673825826486_);}
	.st6{display:none;fill:url(#SVGID_00000120549895547401408930000000785984012625400715_);}
	.st7{display:none;fill:url(#SVGID_00000170987237933080628710000006091720993867282347_);}
	.st8{display:none;fill:url(#SVGID_00000119812230197860739640000000030626036584721567_);}
	.st9{display:none;fill:url(#SVGID_00000143590921638789939260000018339490674652059800_);}
	.st10{display:none;fill:url(#SVGID_00000054983226282360593040000012170285462668188288_);}
	.st11{display:none;fill:url(#SVGID_00000076604411492276901760000011565905951714374074_);}
</style>
<g>
	<path class="st0" d="M462.7,316c0,5.7-1.7,10.3-5.1,13.7c-3.9,4-8.9,6.1-15.1,6.1c-5.9,0-11-2-15.1-6.2c-4.1-4.1-6.2-9.2-6.2-15.3
		c0-6.1,2.1-11.2,6.2-15.3c4.1-4.1,9.2-6.2,15.1-6.2c2.9,0,5.8,0.6,8.4,1.7c2.7,1.1,4.8,2.7,6.4,4.6l-3.6,3.6
		c-2.7-3.2-6.5-4.9-11.2-4.9c-4.3,0-8,1.5-11.2,4.6c-3.1,3-4.7,7-4.7,11.9c0,4.9,1.6,8.8,4.7,11.9c3.1,3,6.9,4.6,11.2,4.6
		c4.6,0,8.4-1.5,11.5-4.6c2-2,3.1-4.8,3.4-8.3h-14.9v-4.9h19.9C462.6,314,462.7,315,462.7,316"/>
	<path class="st0" d="M462.7,316H462c0,5.6-1.6,10-4.9,13.2l0,0v0c-3.7,3.9-8.5,5.9-14.6,5.9c-5.8,0-10.6-2-14.6-6
		c-4-4-6-8.9-6-14.8c0-5.9,2-10.8,6-14.8c4-4,8.9-6,14.6-6c2.9,0,5.6,0.6,8.1,1.7c2.6,1.1,4.6,2.6,6.2,4.4l0.5-0.4l-0.5-0.5
		l-3.6,3.6l0.5,0.5l0.5-0.4c-2.8-3.4-6.8-5.1-11.8-5.1c-4.5,0-8.4,1.6-11.7,4.8c-3.3,3.2-4.9,7.3-4.9,12.3c0,5,1.6,9.2,4.9,12.3
		c3.3,3.2,7.2,4.8,11.7,4.8c4.7,0,8.8-1.6,11.9-4.8c2.1-2.1,3.3-5.1,3.6-8.8l0.1-0.7h-15v-3.6h19.2V313l-0.7,0.1c0.2,1,0.3,2,0.3,3
		h1.4c0-1-0.1-2.1-0.3-3.2l-0.1-0.6h-21.1v6.3h15.6v-0.7l-0.7-0.1c-0.3,3.5-1.4,6-3.2,7.9c-2.9,2.9-6.5,4.4-11,4.4
		c-4.2,0-7.7-1.4-10.7-4.4c-3-2.9-4.5-6.6-4.5-11.4c0-4.7,1.5-8.4,4.5-11.4c3-2.9,6.6-4.4,10.7-4.4c4.6,0,8.1,1.5,10.7,4.6l0.5,0.6
		l4.1-4.1l0.4-0.4l-0.4-0.5c-1.7-2-3.9-3.6-6.7-4.8c-2.8-1.2-5.7-1.8-8.7-1.8c-6.1,0-11.3,2.1-15.6,6.4c-4.3,4.2-6.4,9.5-6.4,15.8
		c0,6.2,2.1,11.5,6.4,15.8c4.2,4.2,9.5,6.4,15.6,6.4c6.3,0,11.6-2.1,15.6-6.3l-0.5-0.5l0.5,0.5c3.5-3.5,5.3-8.3,5.3-14.2L462.7,316
		 M494.2,298.9h-18.7v13h16.9v4.9h-16.9v13h18.7v5h-24v-41.1h24V298.9"/>
	<path class="st0" d="M494.2,298.9v-0.7h-19.4v14.4h16.9v3.6h-16.9v14.4h18.7v3.7h-22.6v-39.7h22.6v4.4L494.2,298.9v-0.7V298.9h0.7
		v-5.7h-25.3v42.5h25.3v-6.4h-18.7v-11.7h16.9v-6.3h-16.9v-11.7h18.7v-0.7L494.2,298.9 M516.4,334.9h-5.3v-36h-11.5v-5h28.2v5h-11.5
		L516.4,334.9"/>
	<path class="st0" d="M516.4,334.9v-0.7h-4.6v-36h-11.5v-3.7h26.8v3.7h-11.5v36.7L516.4,334.9v-0.7V334.9h0.7v-35.4h11.5v-6.4H499
		v6.4h11.5v36h6.6v-0.7L516.4,334.9 M548.3,334.9v-41.1h5.3v41.1H548.3"/>
	<path class="st0" d="M548.3,334.9h0.7v-40.4h3.9v39.7h-4.6L548.3,334.9h0.7H548.3v0.7h6v-42.5h-6.6v42.5h0.7L548.3,334.9
		 M577,334.9h-5.3v-36h-11.5v-5h28.2v5h-11.5L577,334.9"/>
	<path class="st0" d="M577,334.9v-0.7h-4.6v-36h-11.5v-3.7h26.8v3.7h-11.5v36.7L577,334.9v-0.7V334.9h0.7v-35.4h11.5v-6.4h-29.6v6.4
		H571v36h6.6v-0.7L577,334.9 M615.6,326.2c3,3.1,6.8,4.6,11.2,4.6s8.1-1.5,11.1-4.6c3-3.1,4.6-7,4.6-11.8s-1.5-8.7-4.6-11.8
		c-3-3.1-6.8-4.6-11.1-4.6s-8.1,1.5-11.2,4.6c-3,3.1-4.5,7-4.5,11.8S612.5,323.1,615.6,326.2z M641.8,329.6c-4,4.1-9,6.2-15,6.2
		c-6,0-11-2.1-15-6.2c-4-4.1-6-9.2-6-15.2s2-11.1,6-15.2c4-4.2,9-6.2,15-6.2c6,0,11,2.1,15,6.3c4,4.2,6.1,9.2,6.1,15.2
		C647.8,320.4,645.8,325.5,641.8,329.6z"/>
	<path class="st0" d="M615.6,326.2l-0.5,0.5c3.2,3.2,7.1,4.8,11.6,4.8c4.5,0,8.5-1.6,11.6-4.8c3.2-3.2,4.8-7.4,4.8-12.3
		c0-4.9-1.6-9.1-4.8-12.3c-3.1-3.2-7.1-4.8-11.6-4.8c-4.5,0-8.5,1.6-11.6,4.8c-3.2,3.2-4.8,7.4-4.8,12.3c0,4.9,1.6,9.1,4.8,12.3
		L615.6,326.2l0.5-0.5c-2.9-3-4.3-6.7-4.4-11.3c0-4.6,1.5-8.4,4.4-11.3c2.9-3,6.4-4.4,10.7-4.4c4.2,0,7.7,1.5,10.7,4.4
		c2.9,3,4.4,6.7,4.4,11.3c0,4.6-1.5,8.4-4.4,11.3c-2.9,3-6.4,4.4-10.7,4.4c-4.2,0-7.7-1.5-10.7-4.4L615.6,326.2z M641.8,329.6
		l-0.5-0.5c-3.9,4-8.7,6-14.5,6c-5.8,0-10.6-2-14.5-6l0,0l0,0c-3.9-4-5.8-8.9-5.8-14.8c0-5.9,1.9-10.7,5.8-14.8c3.9-4,8.7-6,14.5-6
		c5.8,0,10.6,2,14.5,6c3.9,4.1,5.9,8.9,5.9,14.7c0,5.9-1.9,10.7-5.8,14.8L641.8,329.6l0.5,0.5c4.1-4.3,6.2-9.5,6.2-15.7
		c0-6.1-2.1-11.4-6.3-15.7c-4.2-4.3-9.4-6.5-15.5-6.5c-6.2,0-11.4,2.2-15.5,6.4l0,0c-4.2,4.3-6.2,9.6-6.2,15.7
		c0,6.2,2.1,11.5,6.2,15.7l0,0l0,0c4.1,4.3,9.4,6.4,15.5,6.4c6.2,0,11.4-2.1,15.5-6.4L641.8,329.6z M655.2,334.9v-41.1h6.4l19.9,32
		h0.2l-0.2-7.9v-24h5.3v41.1h-5.5l-20.9-33.5h-0.2l0.2,7.9v25.6L655.2,334.9"/>
	<path class="st0" d="M655.2,334.9h0.7v-40.4h5.3l19.9,32h1.3l-0.2-8.6v-23.4h3.9v39.7h-4.4l-20.9-33.5h-1.3l0.2,8.6v24.9h-4.6
		L655.2,334.9h0.7H655.2v0.7h6v-26.3l-0.2-7.9l-0.7,0v0.7h0.2v-0.7l-0.6,0.4l21.1,33.8h6.6v-42.5h-6.6v24.7l0.2,7.9l0.7,0v-0.7h-0.2
		v0.7l0.6-0.4L662,293.1h-7.5v42.5h0.7V334.9 M869.7,451.4h12.8v-85.6h-12.8V451.4z M984.6,396.6l-14.6,37.1h-0.4l-15.2-37.1h-13.7
		l22.8,51.9l-13,28.9h13.3l35.1-80.7L984.6,396.6z M912.2,441.6c-4.2,0-10-2.1-10-7.3c0-6.6,7.3-9.1,13.5-9.1
		c5.6,0,8.2,1.2,11.7,2.9C926.4,436,919.6,441.6,912.2,441.6L912.2,441.6z M913.8,394.7c-9.2,0-18.8,4.1-22.8,13.1l11.3,4.7
		c2.4-4.7,6.9-6.3,11.7-6.3c6.6,0,13.3,4,13.4,11v0.9c-2.3-1.3-7.2-3.3-13.3-3.3c-12.2,0-24.6,6.7-24.6,19.3
		c0,11.5,10,18.8,21.2,18.8c8.6,0,13.3-3.9,16.3-8.4h0.4v6.6h12.3v-32.8C939.7,403.2,928.4,394.7,913.8,394.7L913.8,394.7z
		 M834.9,407h-18.2v-29.4h18.2c9.5,0,15,7.9,15,14.7C849.8,399,844.4,407,834.9,407z M834.6,365.7H804v85.6h12.8v-32.4h17.8
		c14.1,0,28-10.2,28-26.6S848.7,365.7,834.6,365.7L834.6,365.7z M667.9,441.6c-8.8,0-16.2-7.4-16.2-17.5c0-10.3,7.4-17.8,16.2-17.8
		c8.7,0,15.5,7.5,15.5,17.8C683.4,434.2,676.6,441.6,667.9,441.6L667.9,441.6z M682.5,401.4h-0.4c-2.9-3.4-8.4-6.5-15.3-6.5
		c-14.5,0-27.9,12.8-27.9,29.2c0,16.3,13.3,29,27.9,29c6.9,0,12.5-3.1,15.3-6.6h0.4v4.2c0,11.1-6,17.1-15.5,17.1
		c-7.8,0-12.7-5.6-14.7-10.4l-11.1,4.6c3.2,7.7,11.7,17.2,25.8,17.2c15,0,27.7-8.8,27.7-30.3v-52.3h-12.1L682.5,401.4z M703.4,451.4
		h12.8v-85.6h-12.8V451.4z M735.1,423.1c-0.3-11.3,8.7-17,15.2-17c5.1,0,9.4,2.5,10.8,6.2L735.1,423.1z M774.7,413.4
		c-2.4-6.5-9.8-18.5-24.9-18.5c-15,0-27.4,11.8-27.4,29.1c0,16.3,12.3,29.1,28.9,29.1c13.3,0,21-8.2,24.2-12.9l-9.9-6.6
		c-3.3,4.9-7.8,8.1-14.3,8.1s-11.1-3-14.1-8.8l38.9-16.1L774.7,413.4z M464.9,403.8v12.4h29.5c-0.9,7-3.2,12-6.7,15.6
		c-4.3,4.3-11,9-22.8,9c-18.2,0-32.4-14.7-32.4-32.9c0-18.2,14.2-32.9,32.4-32.9c9.8,0,17,3.9,22.2,8.8l8.7-8.7
		c-7.4-7.1-17.2-12.5-31-12.5c-24.9,0-45.8,20.3-45.8,45.2s20.9,45.2,45.8,45.2c13.4,0,23.6-4.4,31.5-12.7
		c8.1-8.2,10.7-19.6,10.7-28.9c0-2.9-0.2-5.5-0.7-7.7L464.9,403.8z M540.7,441.6c-8.8,0-16.4-7.3-16.4-17.6
		c0-10.5,7.6-17.6,16.4-17.6c8.8,0,16.4,7.2,16.4,17.6C557.1,434.4,549.5,441.6,540.7,441.6z M540.7,394.9
		c-16.1,0-29.2,12.2-29.2,29.1c0,16.8,13.1,29.1,29.2,29.1s29.2-12.4,29.2-29.1C569.9,407.1,556.8,394.9,540.7,394.9z M604.3,441.6
		c-8.8,0-16.4-7.3-16.4-17.6c0-10.5,7.6-17.6,16.4-17.6s16.4,7.2,16.4,17.6C620.8,434.4,613.2,441.6,604.3,441.6L604.3,441.6z
		 M604.3,394.9c-16.1,0-29.2,12.2-29.2,29.1c0,16.8,13.1,29.1,29.2,29.1s29.2-12.4,29.2-29.1C633.5,407.1,620.4,394.9,604.3,394.9
		L604.3,394.9z"/>
	<path class="st1" d="M210.3,298c-2.3,2.1-3.7,5.5-3.7,10.1v-1v151.5v-1c0,4.2,1.2,7.5,3.2,9.6l0.5,0.5l0,0c1.6,1.5,3.7,2.2,6,2.2
		c2.3,0,4.9-0.7,7.7-2.3l99.2-56.5l34.1-19.4c4.3-2.5,6.8-5.6,7.2-8.9v0c-0.4-3.2-2.8-6.4-7.2-8.9l-34.1-19.4L224,298.1
		c-2.8-1.6-5.4-2.3-7.7-2.3C214,295.8,211.9,296.6,210.3,298L210.3,298z"/>
	
		<linearGradient id="SVGID_1_" gradientUnits="userSpaceOnUse" x1="155.6931" y1="-200.6003" x2="15.5662" y2="-470.0893" gradientTransform="matrix(0.2221 0 0 -0.4265 226.6097 220.4141)">
		<stop  offset="0" style="stop-color:#00A0FF"/>
		<stop  offset="6.569999e-03" style="stop-color:#00A1FF"/>
		<stop  offset="0.2601" style="stop-color:#00BEFF"/>
		<stop  offset="0.5122" style="stop-color:#00D2FF"/>
		<stop  offset="0.7604" style="stop-color:#00DFFF"/>
		<stop  offset="1" style="stop-color:#00E3FF"/>
	</linearGradient>
	<path class="st2" d="M210.3,467.7l-0.5-0.5c-2-2.1-3.2-5.4-3.2-9.6v1V307.1v1c0-4.6,1.4-8,3.7-10.1l84.7,84.9L210.3,467.7"/>
	
		<linearGradient id="SVGID_00000099656968795811260200000004489618829096099747_" gradientUnits="userSpaceOnUse" x1="371.8599" y1="-788.1368" x2="-113.1451" y2="-788.1368" gradientTransform="matrix(0.3411 0 0 -0.2777 242.9381 164.0044)">
		<stop  offset="0" style="stop-color:#FFE000"/>
		<stop  offset="0.4087" style="stop-color:#FFBD00"/>
		<stop  offset="0.7754" style="stop-color:#FFA500"/>
		<stop  offset="1" style="stop-color:#FF9C00"/>
	</linearGradient>
	<path style="display:none;fill:url(#SVGID_00000099656968795811260200000004489618829096099747_);" d="M323.3,411.2L295,382.9
		l28.2-28.3l34.1,19.4c4.3,2.5,6.8,5.6,7.2,8.9v0c-0.4,3.2-2.8,6.4-7.2,8.9L323.3,411.2"/>
	
		<linearGradient id="SVGID_00000006674527791684434700000002189339337346670012_" gradientUnits="userSpaceOnUse" x1="422.3919" y1="-664.1437" x2="-19.6831" y2="-1002.9916" gradientTransform="matrix(0.3506 0 0 -0.2702 152.5886 222.5732)">
		<stop  offset="0" style="stop-color:#FF3A44"/>
		<stop  offset="1" style="stop-color:#C31162"/>
	</linearGradient>
	<path style="display:none;fill:url(#SVGID_00000006674527791684434700000002189339337346670012_);" d="M216.4,470
		c-2.4,0-4.4-0.8-6-2.2l0,0l84.7-84.9l28.2,28.3L224,467.6C221.3,469.2,218.7,470,216.4,470"/>
	
		<linearGradient id="SVGID_00000093899942043689623370000003344225579394327177_" gradientUnits="userSpaceOnUse" x1="80.8591" y1="-581.9072" x2="277.9581" y2="-733.2121" gradientTransform="matrix(0.3506 0 0 -0.2702 152.6548 135.6801)">
		<stop  offset="0" style="stop-color:#32A071"/>
		<stop  offset="6.850000e-02" style="stop-color:#2DA771"/>
		<stop  offset="0.4762" style="stop-color:#15CF74"/>
		<stop  offset="0.8009" style="stop-color:#06E775"/>
		<stop  offset="1" style="stop-color:#00F076"/>
	</linearGradient>
	<path style="display:none;fill:url(#SVGID_00000093899942043689623370000003344225579394327177_);" d="M295,382.9L210.3,298
		c1.6-1.5,3.7-2.2,6-2.2c2.3,0,4.9,0.7,7.7,2.3l99.2,56.5L295,382.9"/>
	
		<linearGradient id="SVGID_00000065055309253380701530000003015105000332744368_" gradientUnits="userSpaceOnUse" x1="162.3366" y1="-1241.7836" x2="162.3366" y2="-1241.7836" gradientTransform="matrix(0.3506 0 0 -0.2702 152.6548 135.6801)">
		<stop  offset="0" style="stop-color:#32A071"/>
		<stop  offset="6.850000e-02" style="stop-color:#2DA771"/>
		<stop  offset="0.4762" style="stop-color:#15CF74"/>
		<stop  offset="0.8009" style="stop-color:#06E775"/>
		<stop  offset="1" style="stop-color:#00F076"/>
	</linearGradient>
	<path style="display:none;fill:url(#SVGID_00000065055309253380701530000003015105000332744368_);" d="M209.6,471.2"/>
	
		<linearGradient id="SVGID_00000034780868588660446320000013744194369242461825_" gradientUnits="userSpaceOnUse" x1="-139.1113" y1="-177.1914" x2="-214.9154" y2="-396.7754" gradientTransform="matrix(0.181 0 0 -0.5234 251.4443 221.071)">
		<stop  offset="0" style="stop-color:#008DE0"/>
		<stop  offset="6.569999e-03" style="stop-color:#008DE0"/>
		<stop  offset="0.2601" style="stop-color:#00A7E0"/>
		<stop  offset="0.5122" style="stop-color:#00B8E0"/>
		<stop  offset="0.7604" style="stop-color:#00C4E0"/>
		<stop  offset="1" style="stop-color:#00C7E0"/>
	</linearGradient>
	<path style="display:none;fill:url(#SVGID_00000034780868588660446320000013744194369242461825_);" d="M209.8,468.2
		c-2-2.1-3.2-5.4-3.2-9.6v-1c0,4.2,1.2,7.5,3.2,9.6l0.5,0.5L209.8,468.2"/>
	
		<linearGradient id="SVGID_00000052800720314165140360000002173869833865751739_" gradientUnits="userSpaceOnUse" x1="311.7277" y1="-903.5925" x2="-138.3083" y2="-903.5925" gradientTransform="matrix(0.3676 0 0 -0.2577 255.1861 164.4842)">
		<stop  offset="0" style="stop-color:#E0C500"/>
		<stop  offset="0.4087" style="stop-color:#E0A600"/>
		<stop  offset="0.7754" style="stop-color:#E09100"/>
		<stop  offset="1" style="stop-color:#E08900"/>
	</linearGradient>
	<path style="display:none;fill:url(#SVGID_00000052800720314165140360000002173869833865751739_);" d="M323.9,411.8l-0.6-0.6
		l34.1-19.4c4.3-2.5,6.8-5.6,7.2-8.9c0,1.2-0.3,2.4-0.8,3.5c-1.1,2.3-3.2,4.5-6.4,6.4L323.9,411.8"/>
	
		<linearGradient id="SVGID_00000096052194884496486270000009238233885323998597_" gradientUnits="userSpaceOnUse" x1="311.7365" y1="-902.9584" x2="-138.3055" y2="-902.9584" gradientTransform="matrix(0.3676 0 0 -0.2577 255.188 135.7176)">
		<stop  offset="0" style="stop-color:#FFE840"/>
		<stop  offset="0.4087" style="stop-color:#FFCE40"/>
		<stop  offset="0.7754" style="stop-color:#FFBC40"/>
		<stop  offset="1" style="stop-color:#FFB540"/>
	</linearGradient>
	<path style="display:none;fill:url(#SVGID_00000096052194884496486270000009238233885323998597_);" d="M364.5,382.9
		c-0.4-3.2-2.8-6.4-7.2-8.9l-34.1-19.4l0.6-0.6l0,0l33.5,19C362.1,375.7,364.5,379.3,364.5,382.9"/>
	
		<linearGradient id="SVGID_00000031909306440132479530000003932703640071736220_" gradientUnits="userSpaceOnUse" x1="-235.0752" y1="-449.7709" x2="-310.4542" y2="-659.2378" gradientTransform="matrix(0.1807 0 0 -0.5242 251.6102 60.8777)">
		<stop  offset="0" style="stop-color:#40B8FF"/>
		<stop  offset="6.569999e-03" style="stop-color:#40B9FF"/>
		<stop  offset="0.2601" style="stop-color:#40CEFF"/>
		<stop  offset="0.5122" style="stop-color:#40DDFF"/>
		<stop  offset="0.7604" style="stop-color:#40E7FF"/>
		<stop  offset="1" style="stop-color:#40EAFF"/>
	</linearGradient>
	<path style="display:none;fill:url(#SVGID_00000031909306440132479530000003932703640071736220_);" d="M206.6,308.1v-1
		c0-0.4,0-0.8,0-1.1v0c0,0,0,0,0,0v0c0.2-3.6,1.3-6.5,3.1-8.4l0.5,0.5C208,300.1,206.6,303.5,206.6,308.1"/>
	
		<linearGradient id="SVGID_00000134941523245551851120000011747263044793610936_" gradientUnits="userSpaceOnUse" x1="-232.6519" y1="-560.6874" x2="-232.6519" y2="-560.6874" gradientTransform="matrix(0.1807 0 0 -0.5242 251.6102 60.8777)">
		<stop  offset="0" style="stop-color:#40B8FF"/>
		<stop  offset="6.569999e-03" style="stop-color:#40B9FF"/>
		<stop  offset="0.2601" style="stop-color:#40CEFF"/>
		<stop  offset="0.5122" style="stop-color:#40DDFF"/>
		<stop  offset="0.7604" style="stop-color:#40E7FF"/>
		<stop  offset="1" style="stop-color:#40EAFF"/>
	</linearGradient>
	<path style="display:none;fill:url(#SVGID_00000134941523245551851120000011747263044793610936_);" d="M209.6,354.8"/>
</g>
<path d="M304.4,374.4c-0.2-22.9,18.8-34,19.6-34.6c-10.8-15.6-27.4-17.8-33.2-18c-14-1.5-27.5,8.4-34.6,8.4c-7.2,0-18.2-8.2-30-8
	c-15.2,0.3-29.4,9-37.2,22.7c-16.1,27.9-4.1,68.8,11.3,91.3c7.8,11,16.7,23.4,28.6,22.9c11.5-0.5,15.9-7.4,29.8-7.4
	c13.8,0,17.9,7.4,29.9,7.1c12.4-0.2,20.2-11.1,27.6-22.2c8.9-12.6,12.5-25.1,12.6-25.7C328.4,410.8,304.6,401.8,304.4,374.4
	 M281.6,307c6.2-7.8,10.4-18.3,9.3-29.1c-9,0.4-20.2,6.2-26.7,13.8c-5.7,6.7-10.8,17.7-9.5,28C264.8,320.5,275.2,314.6,281.6,307
	 M471.6,457.6h-16.1l-8.8-27.8h-30.7l-8.4,27.8h-15.7l30.4-94.5H441L471.6,457.6z M444,418.1l-8-24.6c-0.8-2.6-2.4-8.5-4.7-17.8
	h-0.3c-1,4-2.4,10-4.5,17.8l-7.9,24.6H444z M549.7,422.7c0,11.6-3.1,20.7-9.5,27.5c-5.6,6-12.7,9-21,9c-9,0-15.5-3.2-19.5-9.7v35.8
	h-15.2v-73.4c0-7.3-0.2-14.7-0.6-22.4h13.3l0.8,10.8h0.3c5.1-8.1,12.7-12.2,23-12.2c8.1,0,14.7,3.2,20.1,9.5
	C547,403.9,549.7,412.2,549.7,422.7L549.7,422.7z M534.3,423.2c0-6.7-1.5-12.1-4.5-16.4c-3.3-4.5-7.7-6.7-13.2-6.7
	c-3.7,0-7.1,1.3-10.2,3.7c-3,2.5-5.1,5.7-6,9.7c-0.5,1.9-0.7,3.4-0.7,4.6v11.4c0,4.9,1.5,9.1,4.5,12.5s7,5.1,11.8,5.1
	c5.7,0,10.1-2.2,13.3-6.6C532.7,436.2,534.3,430.4,534.3,423.2z M628.1,422.7c0,11.6-3.1,20.7-9.5,27.5c-5.6,6-12.7,9-21,9
	c-9,0-15.5-3.2-19.5-9.7v35.8H563v-73.4c0-7.3-0.2-14.7-0.6-22.4h13.3l0.8,10.8h0.3c5.1-8.1,12.7-12.2,23-12.2
	c8.1,0,14.7,3.2,20.1,9.5C625.4,403.9,628.1,412.2,628.1,422.7L628.1,422.7z M612.6,423.2c0-6.7-1.5-12.1-4.5-16.4
	c-3.3-4.5-7.7-6.7-13.2-6.7c-3.7,0-7.1,1.3-10.2,3.7c-3,2.5-5,5.7-6,9.7c-0.5,1.9-0.7,3.4-0.7,4.6v11.4c0,4.9,1.5,9.1,4.5,12.5
	c3,3.4,7,5.1,11.8,5.1c5.7,0,10.2-2.2,13.3-6.6C611.1,436.2,612.6,430.4,612.6,423.2z M715.8,431.1c0,8.1-2.8,14.6-8.4,19.6
	c-6.2,5.5-14.7,8.3-25.7,8.3c-10.2,0-18.3-2-24.5-5.9l3.5-12.6c6.7,3.9,14,5.9,21.9,5.9c5.7,0,10.2-1.3,13.3-3.8
	c3.2-2.6,4.8-6,4.8-10.3c0-3.8-1.3-7-3.9-9.7c-2.6-2.6-7-5.1-13.1-7.3c-16.7-6.2-25-15.2-25-27.1c0-7.8,2.9-14.1,8.8-19.1
	c5.8-4.9,13.6-7.4,23.2-7.4c8.6,0,15.8,1.5,21.4,4.5l-3.8,12.3c-5.4-2.9-11.4-4.4-18.2-4.4c-5.3,0-9.5,1.3-12.5,3.9
	c-2.5,2.4-3.8,5.2-3.8,8.6c0,3.7,1.5,6.9,4.3,9.2c2.5,2.2,7.1,4.7,13.8,7.3c8.1,3.3,14.1,7.1,17.9,11.5
	C713.8,419,715.8,424.5,715.8,431.1 M766,400.8h-16.7v33.1c0,8.4,2.9,12.6,8.8,12.6c2.7,0,4.9-0.3,6.7-0.7l0.5,11.5
	c-3,1.1-6.9,1.7-11.8,1.7c-6,0-10.6-1.9-14-5.5s-5.1-9.8-5.1-18.4v-34.4h-9.9v-11.3h9.9v-12.5l14.8-4.5v17h16.7L766,400.8L766,400.8
	z M841.1,422.9c0,10.5-3,19.1-9,25.8c-6.3,6.9-14.6,10.4-25,10.4c-10,0-18-3.3-23.9-9.9c-6-6.6-8.9-15-8.9-25.1
	c0-10.6,3.1-19.2,9.2-25.9c6.2-6.7,14.4-10.1,24.8-10.1c10,0,18,3.3,24.1,10C838.2,404.4,841.1,412.8,841.1,422.9L841.1,422.9z
	 M825.4,423.3c0-6.3-1.3-11.6-4-16.1c-3.2-5.4-7.8-8.1-13.6-8.1c-6.1,0-10.8,2.7-13.9,8.1c-2.8,4.5-4,9.9-4,16.4
	c0,6.3,1.3,11.6,4,16.1c3.3,5.4,7.9,8.1,13.8,8.1c5.8,0,10.3-2.8,13.6-8.3C824,434.9,825.4,429.5,825.4,423.3L825.4,423.3z
	 M890.4,402.7c-1.5-0.3-3.1-0.4-4.8-0.4c-5.3,0-9.5,2-12.3,6c-2.5,3.5-3.8,8.1-3.8,13.4v35.8h-15.2v-46.7c0-7.9-0.1-15-0.5-21.4H867
	l0.6,13.1h0.5c1.6-4.5,4.1-8.1,7.5-10.8c3.4-2.4,7-3.6,11-3.6c1.4,0,2.7,0.1,3.8,0.3L890.4,402.7z M958.1,420.2c0,2.7-0.2,5-0.6,6.9
	h-45.5c0.2,6.7,2.4,11.9,6.6,15.4c3.8,3.1,8.8,4.7,14.8,4.7c6.7,0,12.9-1.1,18.4-3.2l2.4,10.5c-6.5,2.8-14.1,4.2-22.8,4.2
	c-10.6,0-18.9-3.1-24.9-9.4s-9-14.6-9-25c0-10.2,2.8-18.8,8.5-25.7c5.9-7.3,13.8-11,23.8-11c9.8,0,17.3,3.6,22.3,11
	C956.1,404.6,958.1,411.7,958.1,420.2L958.1,420.2z M943.6,416.4c0.1-4.5-0.9-8.4-2.9-11.6c-2.6-4.2-6.7-6.3-12-6.3
	c-4.9,0-9,2-12,6.1c-2.5,3.3-4,7.2-4.5,11.8L943.6,416.4z"/>
<path d="M436.7,329.2h-7.9l-4.4-13.6h-15.1l-4.2,13.6h-7.7l14.9-46.5h9.2L436.7,329.2z M423,309.8l-3.9-12.2
	c-0.4-1.2-1.1-4.2-2.4-8.8h-0.1c-0.5,2-1.1,4.9-2.2,8.8l-3.8,12.2H423z M474,295.7l-12.7,33.5h-7.2l-12.3-33.5h8l5.7,17.7
	c1,2.9,1.8,5.8,2.4,8.5h0.2c0.6-2.4,1.4-5.2,2.4-8.5l5.6-17.7H474z M501.1,329.2l-0.6-3.8h-0.2c-2.3,3.1-5.6,4.6-9.8,4.6
	c-6,0-10.2-4.2-10.2-9.9c0-8.3,7.2-12.5,19.6-12.5V307c0-4.4-2.4-6.6-7-6.6c-3.3,0-6.2,0.8-8.8,2.5l-1.5-4.9c3.1-1.9,7-2.9,11.5-2.9
	c8.8,0,13.2,4.6,13.2,13.9v12.4c0,3.4,0.1,6,0.5,8L501.1,329.2z M500,312.5c-8.3,0-12.4,2-12.4,6.8c0,3.5,2.1,5.2,5.1,5.2
	c3.8,0,7.3-2.9,7.3-6.9L500,312.5L500,312.5z M523.8,290.2c-2.5,0-4.4-1.9-4.4-4.5s2-4.4,4.5-4.4s4.6,1.9,4.5,4.4
	C528.5,288.4,526.6,290.2,523.8,290.2L523.8,290.2z M520.3,295.7h7.4v33.5h-7.4V295.7z M540.9,280.3h7.4v48.8h-7.4V280.3z
	 M580,329.2l-0.6-3.8h-0.2c-2.3,3.1-5.6,4.6-9.8,4.6c-6,0-10.2-4.2-10.2-9.9c0-8.3,7.2-12.5,19.6-12.5V307c0-4.4-2.4-6.6-7-6.6
	c-3.3,0-6.2,0.8-8.8,2.5l-1.5-4.9c3.1-1.9,7-2.9,11.5-2.9c8.8,0,13.2,4.6,13.2,13.9v12.4c0,3.4,0.1,6,0.5,8L580,329.2L580,329.2z
	 M579,312.5c-8.3,0-12.4,2-12.4,6.8c0,3.5,2.1,5.2,5.1,5.2c3.8,0,7.3-2.9,7.3-6.9V312.5z M616.4,330c-4.7,0-8.3-2-10.6-6h-0.1
	l-0.5,5.2h-6.3c0.2-2.7,0.3-5.7,0.3-9v-39.9h7.5v20.3h0.1c2.2-3.7,5.8-5.6,10.7-5.6c8.1,0,13.7,6.9,13.7,17
	C631.2,322.4,624.9,330,616.4,330L616.4,330z M614.9,300.9c-4.3,0-8.2,3.7-8.2,8.9v5.9c0,4.6,3.5,8.4,8.1,8.4
	c5.6,0,8.9-4.5,8.9-11.8C623.7,305.5,620.2,300.9,614.9,300.9z M642.2,280.3h7.4v48.8h-7.4V280.3z M690.2,314.2h-22.3
	c0.1,6.3,4.3,9.9,10.6,9.9c3.3,0,6.3-0.6,9-1.6l1.2,5.2c-3.1,1.4-6.8,2-11.2,2c-10.5,0-16.7-6.6-16.7-16.9c0-10.2,6.3-18,15.9-18
	c8.5,0,14,6.3,14,15.9C690.5,312.2,690.4,313.4,690.2,314.2L690.2,314.2z M683.4,308.9c0-5.2-2.6-8.8-7.4-8.8
	c-4.3,0-7.6,3.7-8.1,8.8H683.4z M735.3,330c-9.8,0-16.1-7.3-16.1-17.2c0-10.4,6.5-17.7,16.7-17.7c9.7,0,16.1,7,16.1,17.2
	C752,322.6,745.3,330,735.3,330L735.3,330z M735.6,300.5c-5.4,0-8.8,5.1-8.8,12c0,6.9,3.5,11.9,8.8,11.9s8.8-5.4,8.8-12.1
	C744.2,305.5,740.8,300.5,735.6,300.5L735.6,300.5z M792,329.2h-7.4V310c0-6-2.3-8.9-6.8-8.9c-4.4,0-7.4,3.8-7.4,8.2v19.9h-7.4
	v-23.9c0-2.9-0.1-6.1-0.3-9.6h6.5l0.3,5.2h0.2c2-3.6,6.1-5.9,10.6-5.9c7,0,11.7,5.4,11.7,14.1L792,329.2L792,329.2z M840.7,301.3
	h-8.2v16.3c0,4.2,1.5,6.2,4.3,6.2c1.3,0,2.4-0.1,3.3-0.3l0.2,5.6c-1.5,0.6-3.4,0.8-5.8,0.8c-5.9,0-9.3-3.3-9.3-11.7v-16.9h-4.9v-5.6
	h4.9v-6.1l7.3-2.2v8.3h8.2L840.7,301.3 M880.1,329.2h-7.4v-19.1c0-6-2.3-9-6.8-9c-3.8,0-7.4,2.6-7.4,7.9v20.2h-7.4v-48.8h7.4v20.1
	h0.1c2.4-3.6,5.7-5.4,10-5.4c7.1,0,11.5,5.5,11.5,14.3L880.1,329.2L880.1,329.2z M918.2,314.2h-22.3c0.1,6.3,4.3,9.9,10.6,9.9
	c3.3,0,6.3-0.6,9-1.6l1.2,5.2c-3.1,1.4-6.8,2-11.2,2c-10.5,0-16.7-6.6-16.7-16.9c0-10.2,6.3-18,15.9-18c8.5,0,14,6.3,14,15.9
	C918.5,312.2,918.4,313.4,918.2,314.2L918.2,314.2z M911.4,308.9c0-5.2-2.6-8.8-7.4-8.8c-4.3,0-7.7,3.7-8.1,8.8H911.4z"/>
</svg>
