<?xml version="1.0" encoding="utf-8"?>
<!-- Generator: Adobe Illustrator 25.4.1, SVG Export Plug-In . SVG Version: 6.00 Build 0)  -->
<svg version="1.1" id="Layer_1" xmlns="http://www.w3.org/2000/svg" xmlns:xlink="http://www.w3.org/1999/xlink" x="0px" y="0px"
	 viewBox="0 0 1200 800" style="enable-background:new 0 0 1200 800;" xml:space="preserve">
<style type="text/css">
	.st0{fill:#00C1FF;}
	.st1{fill:url(#SVGID_1_);}
	.st2{fill:url(#SVGID_00000078728372491330535310000000023333213076427964_);}
	.st3{fill:url(#SVGID_00000005960846627908240190000016527942967542894227_);}
	.st4{fill:url(#SVGID_00000003803559871109274190000007639340756720464512_);}
	.st5{fill:url(#SVGID_00000178171912342849310740000008143821410623264694_);}
	.st6{fill:url(#SVGID_00000026860090719151067160000011350757137707747499_);}
	.st7{fill:url(#SVGID_00000013903460704497010530000012273891331683087294_);}
	.st8{fill:url(#SVGID_00000179616356642732005380000011346558610641193662_);}
	.st9{fill:url(#SVGID_00000070803162231867630020000003713045296705227922_);}
	.st10{fill:url(#SVGID_00000042734633641176462590000011509189627025858748_);}
</style>
<g>
	<path d="M462.7,316c0,5.7-1.7,10.3-5.1,13.7c-3.9,4-8.9,6.1-15.1,6.1c-5.9,0-11-2-15.1-6.2c-4.1-4.1-6.2-9.2-6.2-15.3
		c0-6.1,2.1-11.2,6.2-15.3c4.1-4.1,9.2-6.2,15.1-6.2c2.9,0,5.8,0.6,8.4,1.7c2.7,1.1,4.8,2.7,6.4,4.6l-3.6,3.6
		c-2.7-3.2-6.5-4.9-11.2-4.9c-4.3,0-8,1.5-11.2,4.6c-3.1,3-4.7,7-4.7,11.9c0,4.9,1.6,8.8,4.7,11.9c3.1,3,6.9,4.6,11.2,4.6
		c4.6,0,8.4-1.5,11.5-4.6c2-2,3.1-4.8,3.4-8.3h-14.9v-4.9h19.9C462.6,314,462.7,315,462.7,316"/>
	<path d="M462.7,316H462c0,5.6-1.6,10-4.9,13.2l0,0v0c-3.7,3.9-8.5,5.9-14.6,5.9c-5.8,0-10.6-2-14.6-6c-4-4-6-8.9-6-14.8
		c0-5.9,2-10.8,6-14.8c4-4,8.9-6,14.6-6c2.9,0,5.6,0.6,8.1,1.7c2.6,1.1,4.6,2.6,6.2,4.4l0.5-0.4l-0.5-0.5l-3.6,3.6l0.5,0.5l0.5-0.4
		c-2.8-3.4-6.8-5.1-11.8-5.1c-4.5,0-8.4,1.6-11.7,4.8c-3.3,3.2-4.9,7.3-4.9,12.3c0,5,1.6,9.2,4.9,12.3c3.3,3.2,7.2,4.8,11.7,4.8
		c4.7,0,8.8-1.6,11.9-4.8c2.1-2.1,3.3-5.1,3.6-8.8l0.1-0.7h-15v-3.6h19.2V313l-0.7,0.1c0.2,1,0.3,2,0.3,3h1.4c0-1-0.1-2.1-0.3-3.2
		l-0.1-0.6h-21.1v6.3h15.6v-0.7l-0.7-0.1c-0.3,3.5-1.4,6-3.2,7.9c-2.9,2.9-6.5,4.4-11,4.4c-4.2,0-7.7-1.4-10.7-4.4
		c-3-2.9-4.5-6.6-4.5-11.4c0-4.7,1.5-8.4,4.5-11.4c3-2.9,6.6-4.4,10.7-4.4c4.6,0,8.1,1.5,10.7,4.6l0.5,0.6l4.1-4.1l0.4-0.4l-0.4-0.5
		c-1.7-2-3.9-3.6-6.7-4.8c-2.8-1.2-5.7-1.8-8.7-1.8c-6.1,0-11.3,2.1-15.6,6.4c-4.3,4.2-6.4,9.5-6.4,15.8c0,6.2,2.1,11.5,6.4,15.8
		c4.2,4.2,9.5,6.4,15.6,6.4c6.3,0,11.6-2.1,15.6-6.3l-0.5-0.5l0.5,0.5c3.5-3.5,5.3-8.3,5.3-14.2L462.7,316 M494.2,298.9h-18.7v13
		h16.9v4.9h-16.9v13h18.7v5h-24v-41.1h24V298.9"/>
	<path d="M494.2,298.9v-0.7h-19.4v14.4h16.9v3.6h-16.9v14.4h18.7v3.7h-22.6v-39.7h22.6v4.4L494.2,298.9v-0.7V298.9h0.7v-5.7h-25.3
		v42.5h25.3v-6.4h-18.7v-11.7h16.9v-6.3h-16.9v-11.7h18.7v-0.7L494.2,298.9 M516.4,334.9h-5.3v-36h-11.5v-5h28.2v5h-11.5
		L516.4,334.9"/>
	<path d="M516.4,334.9v-0.7h-4.6v-36h-11.5v-3.7h26.8v3.7h-11.5v36.7L516.4,334.9v-0.7V334.9h0.7v-35.4h11.5v-6.4H499v6.4h11.5v36
		h6.6v-0.7L516.4,334.9 M548.3,334.9v-41.1h5.3v41.1H548.3"/>
	<path d="M548.3,334.9h0.7v-40.4h3.9v39.7h-4.6L548.3,334.9h0.7H548.3v0.7h6v-42.5h-6.6v42.5h0.7L548.3,334.9 M577,334.9h-5.3v-36
		h-11.5v-5h28.2v5h-11.5L577,334.9"/>
	<path d="M577,334.9v-0.7h-4.6v-36h-11.5v-3.7h26.8v3.7h-11.5v36.7L577,334.9v-0.7V334.9h0.7v-35.4h11.5v-6.4h-29.6v6.4H571v36h6.6
		v-0.7L577,334.9 M615.6,326.2c3,3.1,6.8,4.6,11.2,4.6s8.1-1.5,11.1-4.6c3-3.1,4.6-7,4.6-11.8s-1.5-8.7-4.6-11.8
		c-3-3.1-6.8-4.6-11.1-4.6s-8.1,1.5-11.2,4.6c-3,3.1-4.5,7-4.5,11.8S612.5,323.1,615.6,326.2z M641.8,329.6c-4,4.1-9,6.2-15,6.2
		c-6,0-11-2.1-15-6.2c-4-4.1-6-9.2-6-15.2s2-11.1,6-15.2c4-4.2,9-6.2,15-6.2c6,0,11,2.1,15,6.3c4,4.2,6.1,9.2,6.1,15.2
		C647.8,320.4,645.8,325.5,641.8,329.6z"/>
	<path d="M615.6,326.2l-0.5,0.5c3.2,3.2,7.1,4.8,11.6,4.8c4.5,0,8.5-1.6,11.6-4.8c3.2-3.2,4.8-7.4,4.8-12.3c0-4.9-1.6-9.1-4.8-12.3
		c-3.1-3.2-7.1-4.8-11.6-4.8c-4.5,0-8.5,1.6-11.6,4.8c-3.2,3.2-4.8,7.4-4.8,12.3c0,4.9,1.6,9.1,4.8,12.3L615.6,326.2l0.5-0.5
		c-2.9-3-4.3-6.7-4.4-11.3c0-4.6,1.5-8.4,4.4-11.3c2.9-3,6.4-4.4,10.7-4.4c4.2,0,7.7,1.5,10.7,4.4c2.9,3,4.4,6.7,4.4,11.3
		c0,4.6-1.5,8.4-4.4,11.3c-2.9,3-6.4,4.4-10.7,4.4c-4.2,0-7.7-1.5-10.7-4.4L615.6,326.2z M641.8,329.6l-0.5-0.5c-3.9,4-8.7,6-14.5,6
		c-5.8,0-10.6-2-14.5-6l0,0l0,0c-3.9-4-5.8-8.9-5.8-14.8c0-5.9,1.9-10.7,5.8-14.8c3.9-4,8.7-6,14.5-6c5.8,0,10.6,2,14.5,6
		c3.9,4.1,5.9,8.9,5.9,14.7c0,5.9-1.9,10.7-5.8,14.8L641.8,329.6l0.5,0.5c4.1-4.3,6.2-9.5,6.2-15.7c0-6.1-2.1-11.4-6.3-15.7
		c-4.2-4.3-9.4-6.5-15.5-6.5c-6.2,0-11.4,2.2-15.5,6.4l0,0c-4.2,4.3-6.2,9.6-6.2,15.7c0,6.2,2.1,11.5,6.2,15.7l0,0l0,0
		c4.1,4.3,9.4,6.4,15.5,6.4c6.2,0,11.4-2.1,15.5-6.4L641.8,329.6z M655.2,334.9v-41.1h6.4l19.9,32h0.2l-0.2-7.9v-24h5.3v41.1h-5.5
		l-20.9-33.5h-0.2l0.2,7.9v25.6L655.2,334.9"/>
	<path d="M655.2,334.9h0.7v-40.4h5.3l19.9,32h1.3l-0.2-8.6v-23.4h3.9v39.7h-4.4l-20.9-33.5h-1.3l0.2,8.6v24.9h-4.6L655.2,334.9h0.7
		H655.2v0.7h6v-26.3l-0.2-7.9l-0.7,0v0.7h0.2v-0.7l-0.6,0.4l21.1,33.8h6.6v-42.5h-6.6v24.7l0.2,7.9l0.7,0v-0.7h-0.2v0.7l0.6-0.4
		L662,293.1h-7.5v42.5h0.7V334.9 M869.7,451.4h12.8v-85.6h-12.8V451.4z M984.6,396.6l-14.6,37.1h-0.4l-15.2-37.1h-13.7l22.8,51.9
		l-13,28.9h13.3l35.1-80.7L984.6,396.6z M912.2,441.6c-4.2,0-10-2.1-10-7.3c0-6.6,7.3-9.1,13.5-9.1c5.6,0,8.2,1.2,11.7,2.9
		C926.4,436,919.6,441.6,912.2,441.6L912.2,441.6z M913.8,394.7c-9.2,0-18.8,4.1-22.8,13.1l11.3,4.7c2.4-4.7,6.9-6.3,11.7-6.3
		c6.6,0,13.3,4,13.4,11v0.9c-2.3-1.3-7.2-3.3-13.3-3.3c-12.2,0-24.6,6.7-24.6,19.3c0,11.5,10,18.8,21.2,18.8
		c8.6,0,13.3-3.9,16.3-8.4h0.4v6.6h12.3v-32.8C939.7,403.2,928.4,394.7,913.8,394.7L913.8,394.7z M834.9,407h-18.2v-29.4h18.2
		c9.5,0,15,7.9,15,14.7C849.8,399,844.4,407,834.9,407z M834.6,365.7H804v85.6h12.8v-32.4h17.8c14.1,0,28-10.2,28-26.6
		S848.7,365.7,834.6,365.7L834.6,365.7z M667.9,441.6c-8.8,0-16.2-7.4-16.2-17.5c0-10.3,7.4-17.8,16.2-17.8
		c8.7,0,15.5,7.5,15.5,17.8C683.4,434.2,676.6,441.6,667.9,441.6L667.9,441.6z M682.5,401.4h-0.4c-2.9-3.4-8.4-6.5-15.3-6.5
		c-14.5,0-27.9,12.8-27.9,29.2c0,16.3,13.3,29,27.9,29c6.9,0,12.5-3.1,15.3-6.6h0.4v4.2c0,11.1-6,17.1-15.5,17.1
		c-7.8,0-12.7-5.6-14.7-10.4l-11.1,4.6c3.2,7.7,11.7,17.2,25.8,17.2c15,0,27.7-8.8,27.7-30.3v-52.3h-12.1L682.5,401.4z M703.4,451.4
		h12.8v-85.6h-12.8V451.4z M735.1,423.1c-0.3-11.3,8.7-17,15.2-17c5.1,0,9.4,2.5,10.8,6.2L735.1,423.1z M774.7,413.4
		c-2.4-6.5-9.8-18.5-24.9-18.5c-15,0-27.4,11.8-27.4,29.1c0,16.3,12.3,29.1,28.9,29.1c13.3,0,21-8.2,24.2-12.9l-9.9-6.6
		c-3.3,4.9-7.8,8.1-14.3,8.1s-11.1-3-14.1-8.8l38.9-16.1L774.7,413.4z M464.9,403.8v12.4h29.5c-0.9,7-3.2,12-6.7,15.6
		c-4.3,4.3-11,9-22.8,9c-18.2,0-32.4-14.7-32.4-32.9c0-18.2,14.2-32.9,32.4-32.9c9.8,0,17,3.9,22.2,8.8l8.7-8.7
		c-7.4-7.1-17.2-12.5-31-12.5c-24.9,0-45.8,20.3-45.8,45.2s20.9,45.2,45.8,45.2c13.4,0,23.6-4.4,31.5-12.7
		c8.1-8.2,10.7-19.6,10.7-28.9c0-2.9-0.2-5.5-0.7-7.7L464.9,403.8z M540.7,441.6c-8.8,0-16.4-7.3-16.4-17.6
		c0-10.5,7.6-17.6,16.4-17.6c8.8,0,16.4,7.2,16.4,17.6C557.1,434.4,549.5,441.6,540.7,441.6z M540.7,394.9
		c-16.1,0-29.2,12.2-29.2,29.1c0,16.8,13.1,29.1,29.2,29.1s29.2-12.4,29.2-29.1C569.9,407.1,556.8,394.9,540.7,394.9z M604.3,441.6
		c-8.8,0-16.4-7.3-16.4-17.6c0-10.5,7.6-17.6,16.4-17.6s16.4,7.2,16.4,17.6C620.8,434.4,613.2,441.6,604.3,441.6L604.3,441.6z
		 M604.3,394.9c-16.1,0-29.2,12.2-29.2,29.1c0,16.8,13.1,29.1,29.2,29.1s29.2-12.4,29.2-29.1C633.5,407.1,620.4,394.9,604.3,394.9
		L604.3,394.9z"/>
	<path class="st0" d="M210.3,298c-2.3,2.1-3.7,5.5-3.7,10.1v-1v151.5v-1c0,4.2,1.2,7.5,3.2,9.6l0.5,0.5l0,0c1.6,1.5,3.7,2.2,6,2.2
		c2.3,0,4.9-0.7,7.7-2.3l99.2-56.5l34.1-19.4c4.3-2.5,6.8-5.6,7.2-8.9v0c-0.4-3.2-2.8-6.4-7.2-8.9l-34.1-19.4L224,298.1
		c-2.8-1.6-5.4-2.3-7.7-2.3C214,295.8,211.9,296.6,210.3,298L210.3,298z"/>
	
		<linearGradient id="SVGID_1_" gradientUnits="userSpaceOnUse" x1="155.6931" y1="-200.6003" x2="15.5662" y2="-470.0893" gradientTransform="matrix(0.2221 0 0 -0.4265 226.6097 220.4141)">
		<stop  offset="0" style="stop-color:#00A0FF"/>
		<stop  offset="6.569999e-03" style="stop-color:#00A1FF"/>
		<stop  offset="0.2601" style="stop-color:#00BEFF"/>
		<stop  offset="0.5122" style="stop-color:#00D2FF"/>
		<stop  offset="0.7604" style="stop-color:#00DFFF"/>
		<stop  offset="1" style="stop-color:#00E3FF"/>
	</linearGradient>
	<path class="st1" d="M210.3,467.7l-0.5-0.5c-2-2.1-3.2-5.4-3.2-9.6v1V307.1v1c0-4.6,1.4-8,3.7-10.1l84.7,84.9L210.3,467.7"/>
	
		<linearGradient id="SVGID_00000103223633035901638390000013858510077108866952_" gradientUnits="userSpaceOnUse" x1="371.8599" y1="-788.1368" x2="-113.1451" y2="-788.1368" gradientTransform="matrix(0.3411 0 0 -0.2777 242.9381 164.0044)">
		<stop  offset="0" style="stop-color:#FFE000"/>
		<stop  offset="0.4087" style="stop-color:#FFBD00"/>
		<stop  offset="0.7754" style="stop-color:#FFA500"/>
		<stop  offset="1" style="stop-color:#FF9C00"/>
	</linearGradient>
	<path style="fill:url(#SVGID_00000103223633035901638390000013858510077108866952_);" d="M323.3,411.2L295,382.9l28.2-28.3
		l34.1,19.4c4.3,2.5,6.8,5.6,7.2,8.9v0c-0.4,3.2-2.8,6.4-7.2,8.9L323.3,411.2"/>
	
		<linearGradient id="SVGID_00000082353376014776711800000009786511240101980047_" gradientUnits="userSpaceOnUse" x1="422.3919" y1="-664.1437" x2="-19.6831" y2="-1002.9916" gradientTransform="matrix(0.3506 0 0 -0.2702 152.5886 222.5732)">
		<stop  offset="0" style="stop-color:#FF3A44"/>
		<stop  offset="1" style="stop-color:#C31162"/>
	</linearGradient>
	<path style="fill:url(#SVGID_00000082353376014776711800000009786511240101980047_);" d="M216.4,470c-2.4,0-4.4-0.8-6-2.2l0,0
		l84.7-84.9l28.2,28.3L224,467.6C221.3,469.2,218.7,470,216.4,470"/>
	
		<linearGradient id="SVGID_00000161599687044565570760000012338583282184435106_" gradientUnits="userSpaceOnUse" x1="80.8591" y1="-581.9072" x2="277.9581" y2="-733.2121" gradientTransform="matrix(0.3506 0 0 -0.2702 152.6548 135.6801)">
		<stop  offset="0" style="stop-color:#32A071"/>
		<stop  offset="6.850000e-02" style="stop-color:#2DA771"/>
		<stop  offset="0.4762" style="stop-color:#15CF74"/>
		<stop  offset="0.8009" style="stop-color:#06E775"/>
		<stop  offset="1" style="stop-color:#00F076"/>
	</linearGradient>
	<path style="fill:url(#SVGID_00000161599687044565570760000012338583282184435106_);" d="M295,382.9L210.3,298
		c1.6-1.5,3.7-2.2,6-2.2c2.3,0,4.9,0.7,7.7,2.3l99.2,56.5L295,382.9"/>
	
		<linearGradient id="SVGID_00000115475068177943104480000016184185628909852831_" gradientUnits="userSpaceOnUse" x1="162.3366" y1="-1241.7836" x2="162.3366" y2="-1241.7836" gradientTransform="matrix(0.3506 0 0 -0.2702 152.6548 135.6801)">
		<stop  offset="0" style="stop-color:#32A071"/>
		<stop  offset="6.850000e-02" style="stop-color:#2DA771"/>
		<stop  offset="0.4762" style="stop-color:#15CF74"/>
		<stop  offset="0.8009" style="stop-color:#06E775"/>
		<stop  offset="1" style="stop-color:#00F076"/>
	</linearGradient>
	<path style="fill:url(#SVGID_00000115475068177943104480000016184185628909852831_);" d="M209.6,471.2"/>
	
		<linearGradient id="SVGID_00000115487631782049603160000007818084000119776671_" gradientUnits="userSpaceOnUse" x1="-139.1113" y1="-177.1914" x2="-214.9154" y2="-396.7754" gradientTransform="matrix(0.181 0 0 -0.5234 251.4443 221.071)">
		<stop  offset="0" style="stop-color:#008DE0"/>
		<stop  offset="6.569999e-03" style="stop-color:#008DE0"/>
		<stop  offset="0.2601" style="stop-color:#00A7E0"/>
		<stop  offset="0.5122" style="stop-color:#00B8E0"/>
		<stop  offset="0.7604" style="stop-color:#00C4E0"/>
		<stop  offset="1" style="stop-color:#00C7E0"/>
	</linearGradient>
	<path style="fill:url(#SVGID_00000115487631782049603160000007818084000119776671_);" d="M209.8,468.2c-2-2.1-3.2-5.4-3.2-9.6v-1
		c0,4.2,1.2,7.5,3.2,9.6l0.5,0.5L209.8,468.2"/>
	
		<linearGradient id="SVGID_00000012462204929947637200000006662531204231363249_" gradientUnits="userSpaceOnUse" x1="311.7277" y1="-903.5925" x2="-138.3083" y2="-903.5925" gradientTransform="matrix(0.3676 0 0 -0.2577 255.1861 164.4842)">
		<stop  offset="0" style="stop-color:#E0C500"/>
		<stop  offset="0.4087" style="stop-color:#E0A600"/>
		<stop  offset="0.7754" style="stop-color:#E09100"/>
		<stop  offset="1" style="stop-color:#E08900"/>
	</linearGradient>
	<path style="fill:url(#SVGID_00000012462204929947637200000006662531204231363249_);" d="M323.9,411.8l-0.6-0.6l34.1-19.4
		c4.3-2.5,6.8-5.6,7.2-8.9c0,1.2-0.3,2.4-0.8,3.5c-1.1,2.3-3.2,4.5-6.4,6.4L323.9,411.8"/>
	
		<linearGradient id="SVGID_00000142175279843122851060000017198047664659994554_" gradientUnits="userSpaceOnUse" x1="311.7365" y1="-902.9584" x2="-138.3055" y2="-902.9584" gradientTransform="matrix(0.3676 0 0 -0.2577 255.188 135.7176)">
		<stop  offset="0" style="stop-color:#FFE840"/>
		<stop  offset="0.4087" style="stop-color:#FFCE40"/>
		<stop  offset="0.7754" style="stop-color:#FFBC40"/>
		<stop  offset="1" style="stop-color:#FFB540"/>
	</linearGradient>
	<path style="fill:url(#SVGID_00000142175279843122851060000017198047664659994554_);" d="M364.5,382.9c-0.4-3.2-2.8-6.4-7.2-8.9
		l-34.1-19.4l0.6-0.6l0,0l33.5,19C362.1,375.7,364.5,379.3,364.5,382.9"/>
	
		<linearGradient id="SVGID_00000078736523344727165030000013503161568524096929_" gradientUnits="userSpaceOnUse" x1="-235.0752" y1="-449.7709" x2="-310.4542" y2="-659.2378" gradientTransform="matrix(0.1807 0 0 -0.5242 251.6102 60.8777)">
		<stop  offset="0" style="stop-color:#40B8FF"/>
		<stop  offset="6.569999e-03" style="stop-color:#40B9FF"/>
		<stop  offset="0.2601" style="stop-color:#40CEFF"/>
		<stop  offset="0.5122" style="stop-color:#40DDFF"/>
		<stop  offset="0.7604" style="stop-color:#40E7FF"/>
		<stop  offset="1" style="stop-color:#40EAFF"/>
	</linearGradient>
	<path style="fill:url(#SVGID_00000078736523344727165030000013503161568524096929_);" d="M206.6,308.1v-1c0-0.4,0-0.8,0-1.1v0
		c0,0,0,0,0,0v0c0.2-3.6,1.3-6.5,3.1-8.4l0.5,0.5C208,300.1,206.6,303.5,206.6,308.1"/>
	
		<linearGradient id="SVGID_00000176756855075412078000000015147342526489719971_" gradientUnits="userSpaceOnUse" x1="-232.6519" y1="-560.6874" x2="-232.6519" y2="-560.6874" gradientTransform="matrix(0.1807 0 0 -0.5242 251.6102 60.8777)">
		<stop  offset="0" style="stop-color:#40B8FF"/>
		<stop  offset="6.569999e-03" style="stop-color:#40B9FF"/>
		<stop  offset="0.2601" style="stop-color:#40CEFF"/>
		<stop  offset="0.5122" style="stop-color:#40DDFF"/>
		<stop  offset="0.7604" style="stop-color:#40E7FF"/>
		<stop  offset="1" style="stop-color:#40EAFF"/>
	</linearGradient>
	<path style="fill:url(#SVGID_00000176756855075412078000000015147342526489719971_);" d="M209.6,354.8"/>
</g>
</svg>
