<?xml version="1.0" encoding="utf-8"?>
<!-- Generator: Adobe Illustrator 25.4.1, SVG Export Plug-In . SVG Version: 6.00 Build 0)  -->
<svg version="1.1" id="Layer_1" xmlns="http://www.w3.org/2000/svg" xmlns:xlink="http://www.w3.org/1999/xlink" x="0px" y="0px"
	 viewBox="0 0 595.28 841.89" style="enable-background:new 0 0 595.28 841.89;" xml:space="preserve">
<style type="text/css">
	.st0{fill:#ED1C24;}
</style>
<g>
	<path class="st0" d="M515.55,580.76c-52.68-52.64-105.35-105.3-158.14-157.83c-1.51-1.5-4.26-2.46-6.44-2.46
		c-28.32-0.12-56.64-0.03-84.97,0.04c-1.14,0-2.29,0.26-4.45,0.53c29.73,29.76,58.91,58.97,88.53,88.63l10.33,10.29
		c0.01,0,0.01-0.01,0.02-0.01l8.14,8.14l0,0c17.83,17.93,35.68,35.84,53.68,53.6c1.75,1.73,4.7,3.16,7.1,3.18
		c28.01,0.21,56.02,0.13,84.04,0.12c1.61,0,3.23-0.14,5.79-0.26C517.54,582.92,516.59,581.8,515.55,580.76z"/>
	<path class="st0" d="M222.95,518.33c-17.83-0.03-34.56-3.83-49.28-14.77c-14.57-10.83-24.1-25.1-27.44-42.65
		c-2.14-11.26-1.67-23.03-2.17-34.58c-0.09-2.05-0.13-3.42-0.36-4.33c1.12,0,2.29,0,3.47,0l4.39-0.01
		c17.28-0.03,34.56-0.06,51.84-0.11c5.98-0.02,5.78-0.06,6.05-6.2c0.5-11.55,0.03-23.32,2.17-34.58
		c3.34-17.55,12.87-31.81,27.44-42.65c14.71-10.94,31.45-14.74,49.28-14.77c59.43-0.09,118.86-0.02,178.29-0.02
		c1.42,0,2.84-0.1,4.33-0.19c0.93-0.06,1.65-0.83,1.65-1.75v-63.32c0-0.97-0.79-1.76-1.76-1.76c-1.24,0-2.39,0-3.53,0
		c-62.37,0.19-124.74,0.42-187.11,0.57c-34.08,0.08-63.93,11.34-89.37,33.94c-22.81,20.26-38.28,44.91-45.02,75.02
		c-3.2,14.32-4.23,28.71-4.33,43.2l0,4.95c0,0.23,0,0.46,0,0.69c0,0.13,0,0.25,0,0.37l0,4.86c0,0,0,0,0,0
		c-0.83-0.11-1.95-0.12-3.48-0.12c-17.28-0.05-34.56-0.08-51.84-0.11l-4.39-0.01c-1.33,0-2.65,0-3.91,0c0,0,0,0,0-0.01
		c-0.97,0-1.76,0.79-1.76,1.76l0,4.86c0,0.13,0,0.24,0,0.37c0,0.23,0,0.46,0,0.69l0,4.95c0.1,14.49,1.13,28.88,4.33,43.2
		c6.74,30.11,22.21,54.76,45.02,75.02c25.44,22.6,55.29,33.86,89.37,33.94c47.59,0.11,95.18,0.27,142.76,0.43v-66.87
		C312.71,518.38,267.83,518.4,222.95,518.33z"/>
</g>
</svg>
