<?xml version="1.0" encoding="utf-8"?>
<!-- Generator: Adobe Illustrator 25.4.1, SVG Export Plug-In . SVG Version: 6.00 Build 0)  -->
<svg version="1.1" baseProfile="basic" id="Layer_1"
	 xmlns="http://www.w3.org/2000/svg" xmlns:xlink="http://www.w3.org/1999/xlink" x="0px" y="0px" viewBox="0 0 512 512"
	 xml:space="preserve">
<g>
	<path fill="#FF0000" d="M204,208.6c6.6,5.4,21.1,12.8,30,15.1c9,2.4,30,2.4,38.9-0.1c26.3-7.2,47.8-28.6,54.6-54.1
		c8.4-32.1-5.8-67.4-33.9-84.4c-16.6-10-38-13.5-57.1-9.4c-31.4,6.7-55.1,32.4-59.6,64.9C173.5,165.2,184.3,192.3,204,208.6z
		 M196.1,134.8c8.4-31,41.9-49.9,72.9-41.2c19.9,5.6,36.3,22.4,41.5,42.4c2.3,8.8,1.7,24.2-1.3,32.4c-8.7,24-30.9,39.8-55.7,39.7
		c-17.2,0-29.7-5.3-42-17.6C196,175,190.6,155.4,196.1,134.8z"/>
	<path fill="#FF0000" d="M384,237.8c10.1,4.8,16.3,6.2,27.4,6.2c26.5,0,49.6-17.6,57.2-43.5c2.3-8,2.3-23,0-30.9
		c-5.6-19-19.8-34.2-37.7-40.6c-9-3.1-27.8-3.8-36.4-1.2c-21,6.3-37.2,23.1-42,43.4C346.2,197.9,359.6,226.1,384,237.8z
		 M369.4,177.1c4.9-23.6,28.3-38.5,51.1-32.6c8,2.1,14.5,5.8,20.3,11.7c16.4,16.5,16,42.2-0.9,58.3c-17.1,16.4-42.4,16.2-59-0.4
		C370.8,203.9,366.6,190.6,369.4,177.1z"/>
	<path fill="#FF0000" d="M81.3,245c8.7,3.1,25.8,3.8,34.6,1.5c21.4-5.6,38.7-22.9,43.6-43.7c1.9-8.1,1.9-19.6,0-27.7
		c-4.9-20.7-23-38.7-43.7-43.6c-8-1.9-22.6-1.8-29.8,0.1c-20.8,5.6-36.4,20.9-42.6,41.9c-2.3,8-2.3,23,0,31
		C48.9,223.3,63.3,238.7,81.3,245z M63.6,170.4c5.3-10.4,18.1-20.1,29.6-22.3c6.6-1.3,10.3-1.2,17.8,0.5c16.5,3.7,29,17.2,32,34.5
		c4.6,26.6-21.5,52.1-48.3,47.1C66.4,224.9,51,195.3,63.6,170.4z"/>
	<path fill="#FF0000" d="M511.8,363.1c-0.4-24.4-0.6-26-3.2-34.6c-5.3-17.5-12.9-30.3-25.8-43.2c-29.9-30.3-76.7-38.5-115.5-20.3
		c-4.6,2.1-9.6,4.8-11.2,6l-3,2l-8.8-7c-20-16.1-44.3-26.7-68.6-29.9c-9.2-1.3-31.6-1.2-40.2,0c-16.1,2.4-34.6,8.8-49,17
		c-9.3,5.3-22.8,15.4-27.8,20.7l-2.9,3l-8.6-4.4c-4.8-2.4-12.7-5.6-17.7-7.1c-8.4-2.5-10.2-2.7-28-2.7c-17.9,0-19.5,0.1-28,2.7
		C38.6,276,13.9,300.4,3.3,334.6c-2.7,8.8-2.3,36-2.3,36v26.85l2.85,4.08c1.53,2.24,5.09,5.3,7.74,6.83l4.99,2.65h51.05h51.05
		l0.51,2.85c1.63,7.64,2.85,10.49,6.72,14.88c2.34,2.65,6.11,5.81,8.46,7.03l4.18,2.24H256h120.5l4.1-2.7c4.8-2.6,11-9.2,13-13.8
		c0.7-1.8,1.6-6.2,2-9.9l0.7-6.6h49.4c53.8,0,53.5,0,59.6-5.8c1.6-1.5,3.8-4.4,4.9-6.6C512.1,389,512.1,387.2,511.8,363.1z
		 M118.6,349c-0.9,5.2-1.9,17.5-2.3,27.2l-0.6,17.8H68c-46.1,0-47.8-0.1-49.5-2c-1.6-1.7-1.7-3.8-1.2-22.7c0.4-17.2,0.8-22,2.6-28
		c9.4-32.1,33.9-54.5,66.6-60.9c9.3-1.8,25.7-1.1,35.9,1.6c4.4,1.1,11,3.4,14.7,5.1l6.7,3.1l-5.5,8.4
		C128.5,313.7,121.7,331.2,118.6,349z M372.7,419c-3.1,1.9-6.1,2-116.7,2s-113.6-0.1-116.7-2c-5.5-3.3-5.5-3.7-5-34.9
		c0.5-30.2,1-34.3,6.2-49.7c17.7-52.8,73-87.8,128.6-81.4c19.8,2.3,40,9.8,56.6,21.2c20.2,13.7,38.1,37.4,45.8,60.2
		c5.2,15.4,5.7,19.5,6.2,49.7C378.2,415.3,378.2,415.7,372.7,419z M492.9,386.4c-2.1,1.4-7.5,1.6-49.5,1.6h-47.1l-0.7-14.8
		c-1.5-32.5-8.2-54.4-23.9-77.5l-6.6-9.7l6.7-3.4c18.2-9,36-11.7,54.4-8.2c27.6,5.3,52.2,25.2,62.4,50.4c4.9,12.3,5.6,16.7,6.1,38.8
		l0.5,21.1L492.9,386.4z"/>
</g>
</svg>
